<?xml version="1.0" standalone="no"?>
<!DOCTYPE svg PUBLIC "-//W3C//DTD SVG 20010904//EN"
 "http://www.w3.org/TR/2001/REC-SVG-20010904/DTD/svg10.dtd">
<svg version="1.0" xmlns="http://www.w3.org/2000/svg"
 width="226.000000pt" height="226.000000pt" viewBox="0 0 226.000000 226.000000"
 preserveAspectRatio="xMidYMid meet">
<metadata>
Created by potrace 1.11, written by Peter Selinger 2001-2013
</metadata>
<g transform="translate(0.000000,226.000000) scale(0.100000,-0.100000)"
fill="#000000" stroke="none">
<path d="M1066 2252 c-2 -4 -19 -9 -37 -10 -94 -7 -314 -78 -409 -130 -25 -14
-54 -31 -65 -36 -68 -37 -157 -107 -228 -181 -56 -57 -159 -208 -178 -259 -7
-20 -16 -36 -19 -36 -7 0 -35 -80 -32 -92 1 -5 -3 -8 -9 -8 -5 0 -7 -5 -4 -10
4 -6 2 -16 -3 -23 -6 -7 -10 -16 -11 -22 0 -12 -9 -60 -17 -95 -3 -14 -7 -46
-8 -72 0 -27 -4 -48 -8 -48 -5 0 -8 -40 -8 -90 0 -49 4 -90 8 -90 5 0 10 -21
11 -48 0 -26 4 -58 7 -72 3 -14 7 -38 10 -53 3 -15 14 -54 25 -85 11 -31 21
-61 23 -67 1 -5 13 -32 26 -60 13 -27 23 -53 22 -57 -1 -5 2 -8 8 -8 5 0 10
-7 10 -15 0 -8 5 -15 11 -15 5 0 7 -4 4 -10 -3 -5 -1 -10 4 -10 6 0 11 -7 11
-15 0 -8 3 -15 8 -15 4 0 18 -17 32 -38 33 -50 162 -179 230 -228 115 -84 253
-147 410 -188 131 -35 163 -38 340 -39 139 -1 198 3 280 18 14 3 41 7 60 10
71 12 207 48 283 76 109 40 264 118 298 150 l29 27 0 441 c0 346 -3 441 -12
442 -68 6 -597 3 -610 -3 -16 -8 -17 -32 -17 -269 0 -144 -1 -262 -3 -264 -2
-1 -25 -10 -53 -19 -69 -24 -260 -33 -333 -16 -134 31 -259 126 -318 242 -84
165 -83 401 1 563 60 116 187 207 332 235 58 12 211 9 262 -3 52 -13 98 -31
141 -55 71 -39 112 -70 184 -140 l23 -24 214 188 c238 209 239 210 239 219 0
4 -24 32 -52 62 -112 118 -272 217 -438 273 -82 28 -225 59 -267 60 -18 0 -33
5 -33 10 0 12 -366 14 -374 2z"/>
</g>
</svg>
