<?xml version="1.0" encoding="utf-8"?>
<!-- Generator: Adobe Illustrator 23.0.3, SVG Export Plug-In . SVG Version: 6.00 Build 0)  -->
<svg version="1.1" id="Layer_1" xmlns="http://www.w3.org/2000/svg" xmlns:xlink="http://www.w3.org/1999/xlink" x="0px" y="0px"
	 viewBox="0 0 113.4 49.7" style="enable-background:new 0 0 113.4 49.7;" xml:space="preserve">
<style type="text/css">
	.st0{fill:#177BC0;}
	.st1{fill:#024774;}
	.st2{fill:#044A79;}
	.st3{fill:url(#SVGID_1_);}
	.st4{fill:#0A74BB;}
	.st5{fill:#044A78;}
	.st6{fill:#FFFFFF;}
	.st7{fill:url(#SVGID_2_);}
	.st8{fill:url(#SVGID_3_);}
	.st9{fill:#034775;}
	.st10{fill:#034875;}
	.st11{enable-background:new    ;}
	.st12{clip-path:url(#SVGID_5_);enable-background:new    ;}
	.st13{fill:#044977;}
	.st14{clip-path:url(#SVGID_7_);enable-background:new    ;}
	.st15{fill:#084F80;}
	.st16{fill:#074D7D;}
	.st17{fill:#054B7A;}
	.st18{fill:url(#SVGID_8_);}
	.st19{clip-path:url(#SVGID_10_);enable-background:new    ;}
	.st20{clip-path:url(#SVGID_12_);enable-background:new    ;}
	.st21{fill:url(#SVGID_13_);}
	.st22{clip-path:url(#SVGID_15_);enable-background:new    ;}
	.st23{clip-path:url(#SVGID_17_);enable-background:new    ;}
	.st24{clip-path:url(#SVGID_19_);enable-background:new    ;}
</style>
<g>
	<path class="st0" d="M60,22l-9.2-9.2L41.6,22l3.3,3.3l3-3v1.1v16.7c0,1.2,0.1,4.3-5.5,4.3c-5.6,0-5.9-2.9-5.9-4.9V39h-7v0.6
		c0,2.9-0.4,9.8,12.9,9.8c11.7,0,11.3-6.4,11.3-8.5V23.3h0v-1.1l3,3L60,22z"/>
	<g>
		<polygon class="st1" points="18.9,38.5 18.9,39 14.9,29.3 14.9,28.7 		"/>
	</g>
	<g>
		<polygon class="st2" points="14.9,28.7 14.9,29.3 10.8,39 10.8,38.5 		"/>
	</g>
	<g>
		<rect x="9" y="42.7" class="st1" width="11.6" height="0.5"/>
	</g>
	<g>
		<linearGradient id="SVGID_1_" gradientUnits="userSpaceOnUse" x1="14.9077" y1="47.8072" x2="14.9077" y2="23.0655">
			<stop  offset="0" style="stop-color:#3C95D1"/>
			<stop  offset="0.1" style="stop-color:#0684C3"/>
			<stop  offset="0.4" style="stop-color:#0A74BB"/>
			<stop  offset="0.6" style="stop-color:#0A74BB"/>
			<stop  offset="0.9" style="stop-color:#0684C3"/>
			<stop  offset="1" style="stop-color:#3C95D1"/>
		</linearGradient>
		<path class="st3" d="M18.7,23.1l11.1,24.7h-7.1l-2.1-5.1H9l-2.1,5.1H0l11.2-24.7H18.7z M10.8,38.5h8.1l-4-9.7L10.8,38.5"/>
	</g>
	<g>
		<path class="st4" d="M18.7,23.1l11.1,24.7h-7.1l-2.1-5.1H9l-2.1,5.1H0l11.2-24.7H18.7z M10.8,38.5h8.1l-4-9.7L10.8,38.5"/>
	</g>
	<g>
		<rect y="47.8" class="st1" width="6.9" height="0.5"/>
	</g>
	<g>
		<polygon class="st5" points="9,42.7 9,43.3 6.9,48.3 6.9,47.8 		"/>
	</g>
	<g>
		<rect x="22.7" y="47.8" class="st1" width="7.1" height="0.5"/>
	</g>
	<g>
		<polygon class="st1" points="22.7,47.8 22.7,48.3 20.6,43.3 20.6,42.7 		"/>
	</g>
	<g>
		<g>
			<polygon class="st6" points="18.9,38.1 18.9,38.6 14.9,28.9 14.9,28.4 			"/>
		</g>
		<g>
			<polygon class="st6" points="14.9,28.4 14.9,28.9 10.8,38.6 10.8,38.1 			"/>
		</g>
		<g>
			<rect x="9" y="42.4" class="st6" width="11.6" height="0.5"/>
		</g>
		<g>
			<rect y="47.5" class="st6" width="6.9" height="0.5"/>
		</g>
		<g>
			<polygon class="st6" points="9,42.4 9,42.9 6.9,48 6.9,47.5 			"/>
		</g>
		<g>
			<rect x="22.7" y="47.5" class="st6" width="7.1" height="0.5"/>
		</g>
		<g>
			<polygon class="st6" points="22.7,47.5 22.7,48 20.6,42.9 20.6,42.4 			"/>
		</g>
	</g>
	<g>
		<linearGradient id="SVGID_2_" gradientUnits="userSpaceOnUse" x1="68.9873" y1="47.8072" x2="68.9873" y2="23.0655">
			<stop  offset="0" style="stop-color:#3C95D1"/>
			<stop  offset="0.1" style="stop-color:#0684C3"/>
			<stop  offset="0.4" style="stop-color:#0A74BB"/>
			<stop  offset="0.6" style="stop-color:#0A74BB"/>
			<stop  offset="0.9" style="stop-color:#0684C3"/>
			<stop  offset="1" style="stop-color:#3C95D1"/>
		</linearGradient>
		<path class="st7" d="M72.8,23.1l11.1,24.7h-7.1l-2.1-5.1H63.1L61,47.8h-6.9l11.2-24.7H72.8z M64.9,38.5h8.1l-4-9.7L64.9,38.5"/>
	</g>
	<g>
		<g>
			<polygon class="st1" points="72.9,38.5 72.9,39 69,29.3 69,28.7 			"/>
		</g>
		<g>
			<polygon class="st2" points="69,28.7 69,29.3 64.9,39 64.9,38.5 			"/>
		</g>
		<g>
			<rect x="63.1" y="42.7" class="st1" width="11.6" height="0.5"/>
		</g>
		<g>
			<rect x="54.1" y="47.8" class="st1" width="6.9" height="0.5"/>
		</g>
		<g>
			<polygon class="st5" points="63.1,42.7 63.1,43.3 61,48.3 61,47.8 			"/>
		</g>
		<g>
			<rect x="76.8" y="47.8" class="st1" width="7.1" height="0.5"/>
		</g>
		<g>
			<polygon class="st1" points="76.8,47.8 76.8,48.3 74.7,43.3 74.7,42.7 			"/>
		</g>
	</g>
	<g>
		<g>
			<polygon class="st6" points="72.9,38.1 72.9,38.6 69,28.9 69,28.4 			"/>
		</g>
		<g>
			<polygon class="st6" points="69,28.4 69,28.9 64.9,38.6 64.9,38.1 			"/>
		</g>
		<g>
			<rect x="63.1" y="42.4" class="st6" width="11.6" height="0.5"/>
		</g>
		<g>
			<rect x="54.1" y="47.5" class="st6" width="6.9" height="0.5"/>
		</g>
		<g>
			<polygon class="st6" points="63.1,42.4 63.1,42.9 61,48 61,47.5 			"/>
		</g>
		<g>
			<rect x="76.8" y="47.5" class="st6" width="7.1" height="0.5"/>
		</g>
		<g>
			<polygon class="st6" points="76.8,47.5 76.8,48 74.7,42.9 74.7,42.4 			"/>
		</g>
	</g>
	<g>
		<linearGradient id="SVGID_3_" gradientUnits="userSpaceOnUse" x1="99.4219" y1="47.8072" x2="99.4219" y2="23.0655">
			<stop  offset="0" style="stop-color:#3C95D1"/>
			<stop  offset="0.1" style="stop-color:#0684C3"/>
			<stop  offset="0.4" style="stop-color:#0A74BB"/>
			<stop  offset="0.6" style="stop-color:#0A74BB"/>
			<stop  offset="0.9" style="stop-color:#0684C3"/>
			<stop  offset="1" style="stop-color:#3C95D1"/>
		</linearGradient>
		<polygon class="st8" points="103.2,35 113.4,47.8 105.4,47.8 99.4,39.4 93.1,47.8 85.5,47.8 95.6,35.2 85.9,23.1 93.8,23.1 
			99.4,31.1 105.2,23.1 112.8,23.1 		"/>
	</g>
	<g>
		<g>
			<polygon class="st9" points="112.8,23.1 112.8,23.6 103.2,35.5 103.2,35 			"/>
		</g>
		<g>
			<polygon class="st1" points="95.6,35.2 95.6,35.7 85.9,23.6 85.9,23.1 			"/>
		</g>
		<g>
			<polygon class="st1" points="105.4,47.8 105.4,48.3 99.4,39.9 99.4,39.4 			"/>
		</g>
		<g>
			<rect x="85.5" y="47.8" class="st1" width="7.6" height="0.5"/>
		</g>
		<g>
			<polygon class="st10" points="99.4,39.4 99.4,39.9 93.1,48.3 93.1,47.8 			"/>
		</g>
		<g>
			<rect x="105.4" y="47.8" class="st1" width="8" height="0.5"/>
		</g>
	</g>
	<g>
		<g>
			<polygon class="st6" points="112.8,22.7 112.8,23.3 103.2,35.2 103.2,34.7 			"/>
		</g>
		<g>
			<polygon class="st6" points="95.6,34.9 95.6,35.4 85.9,23.3 85.9,22.7 			"/>
		</g>
		<g>
			<polygon class="st6" points="105.4,47.5 105.4,48 99.4,39.6 99.4,39 			"/>
		</g>
		<g>
			<rect x="85.5" y="47.5" class="st6" width="7.6" height="0.5"/>
		</g>
		<g>
			<polygon class="st6" points="99.4,39 99.4,39.6 93.1,48 93.1,47.5 			"/>
		</g>
		<g>
			<rect x="105.4" y="47.5" class="st6" width="8" height="0.5"/>
		</g>
	</g>
	<g class="st11">
		<defs>
			<path id="SVGID_4_" class="st11" d="M47.9,39.9v0.5c0,0,0-0.1,0-0.1V39.9C47.9,39.8,47.9,39.9,47.9,39.9z"/>
		</defs>
		<clipPath id="SVGID_5_">
			<use xlink:href="#SVGID_4_"  style="overflow:visible;"/>
		</clipPath>
		<g class="st12">
			<path class="st13" d="M47.9,39.9v0.5c0,0,0-0.1,0-0.1V39.9C47.9,39.8,47.9,39.9,47.9,39.9"/>
		</g>
	</g>
	<g>
		<g>
			<polygon class="st1" points="47.9,21.9 47.9,22.5 44.9,25.5 44.9,24.9 			"/>
		</g>
		<g>
			<polygon class="st1" points="44.9,24.9 44.9,25.5 41.6,22.2 41.6,21.7 			"/>
		</g>
		<g>
			<polygon class="st1" points="56.7,24.9 56.7,25.5 53.7,22.5 53.7,22 			"/>
		</g>
		<g>
			<polygon class="st1" points="60,21.7 60,22.2 56.7,25.5 56.7,24.9 			"/>
		</g>
		<g class="st11">
			<defs>
				<path id="SVGID_6_" class="st11" d="M53.7,41v0.5c0,2.4-0.3,8.1-11.3,8.1c-12.5,0-12.9-6.2-12.9-9.3v-0.5
					c0,3.1,0.4,9.3,12.9,9.3C53.4,49.1,53.7,43.4,53.7,41z"/>
			</defs>
			<clipPath id="SVGID_7_">
				<use xlink:href="#SVGID_6_"  style="overflow:visible;"/>
			</clipPath>
			<g class="st14">
				<path class="st15" d="M53.7,41v0.5c0,0.4,0,1-0.1,1.6v-0.5C53.7,42,53.7,41.5,53.7,41"/>
				<path class="st16" d="M53.7,42.6v0.5c-0.1,0.4-0.1,0.8-0.3,1.2v-0.5C53.5,43.4,53.6,43,53.7,42.6"/>
				<path class="st17" d="M53.4,43.8v0.5c-0.1,0.4-0.3,0.7-0.5,1.1v-0.5C53.1,44.5,53.3,44.2,53.4,43.8"/>
				<path class="st13" d="M52.9,44.9v0.5c-1.1,2.2-3.9,4.2-10.5,4.2c-12.5,0-12.9-6.2-12.9-9.3v-0.5c0,3.1,0.4,9.3,12.9,9.3
					C49,49.1,51.8,47.1,52.9,44.9"/>
			</g>
		</g>
	</g>
	<g>
		<linearGradient id="SVGID_8_" gradientUnits="userSpaceOnUse" x1="44.7581" y1="49.1118" x2="44.7581" y2="12.4917">
			<stop  offset="0" style="stop-color:#3C95D1"/>
			<stop  offset="0.1" style="stop-color:#0684C3"/>
			<stop  offset="0.4" style="stop-color:#0A74BB"/>
			<stop  offset="0.6" style="stop-color:#0A74BB"/>
			<stop  offset="0.75" style="stop-color:#0684C3"/>
			<stop  offset="0.9" style="stop-color:#3C95D1"/>
		</linearGradient>
		<path class="st18" d="M50.8,12.5l9.2,9.2l-3.3,3.3l-3-3v1.1v17.6c0,2.1,0.3,8.5-11.3,8.5c-13.3,0-12.9-6.9-12.9-9.8v-0.6h7v0.6
			c0.1,1.9,0.3,4.9,5.9,4.9c5.5,0,5.5-3.1,5.5-4.3V23.1v-1.1l-3,3l-3.3-3.2L50.8,12.5z"/>
	</g>
	<g class="st11">
		<defs>
			<path id="SVGID_9_" class="st11" d="M30,8.6V8.1c0,0.1,0,0.3,0,0.4V9C30,8.9,30,8.8,30,8.6z"/>
		</defs>
		<clipPath id="SVGID_10_">
			<use xlink:href="#SVGID_9_"  style="overflow:visible;"/>
		</clipPath>
		<g class="st19">
			<path class="st13" d="M30,8.5V9c0-0.1,0-0.2,0-0.4V8.1C30,8.2,30,8.4,30,8.5"/>
		</g>
	</g>
	<g class="st11">
		<defs>
			<path id="SVGID_11_" class="st11" d="M54.2,9.3c0,0.2,0,0.4,0,0.5v0.5c0-0.2,0-0.3,0-0.5C54.2,9.7,54.2,9.5,54.2,9.3z"/>
		</defs>
		<clipPath id="SVGID_12_">
			<use xlink:href="#SVGID_11_"  style="overflow:visible;"/>
		</clipPath>
		<g class="st20">
			<path class="st15" d="M54.2,9.3v0.5c0,0.2,0,0.4,0,0.5V9.8C54.2,9.7,54.2,9.5,54.2,9.3"/>
		</g>
	</g>
	<g>
		<linearGradient id="SVGID_13_" gradientUnits="userSpaceOnUse" x1="39.0041" y1="36.6255" x2="39.0041" y2="-9.094947e-13">
			<stop  offset="0.1" style="stop-color:#0684C3"/>
			<stop  offset="0.4" style="stop-color:#0A74BB"/>
			<stop  offset="0.65" style="stop-color:#3C95D1"/>
			<stop  offset="1" style="stop-color:#6BB3E2"/>
		</linearGradient>
		<path class="st21" d="M41.3,0c13.3,0,12.9,6.9,12.9,9.8v0.6h-7V9.8C47.2,7.9,47,5,41.3,5c-5.5,0-5.5,3.1-5.5,4.3v16.7v1.1l3-3
			l3.3,3.2L33,36.6l-9.2-9.2l3.3-3.3l3,3v-1.1V8.5C30,6.4,29.7,0,41.3,0z"/>
	</g>
	<g>
		<path class="st4" d="M72.8,23.1l11.1,24.7h-7.1l-2.1-5.1H63.1L61,47.8h-6.9l11.2-24.7H72.8z M64.9,38.5h8.1l-4-9.7L64.9,38.5"/>
	</g>
	<g>
		<polygon class="st4" points="103.2,35 113.4,47.8 105.4,47.8 99.4,39.4 93.1,47.8 85.5,47.8 95.6,35.2 85.9,23.1 93.8,23.1 
			99.4,31.1 105.2,23.1 112.8,23.1 		"/>
	</g>
	<g>
		<path class="st4" d="M50.8,12.5l9.2,9.2l-3.3,3.3l-3-3v1.1v17.6c0,2.1,0.3,8.5-11.3,8.5c-13.3,0-12.9-6.9-12.9-9.8v-0.6h7v0.6
			c0.1,1.9,0.3,4.9,5.9,4.9c5.5,0,5.5-3.1,5.5-4.3V23.1v-1.1l-3,3l-3.3-3.2L50.8,12.5z"/>
	</g>
	<g>
		<path class="st4" d="M41.3,0c13.3,0,12.9,6.9,12.9,9.8v0.6h-7V9.8C47.2,7.9,47,5,41.3,5c-5.5,0-5.5,3.1-5.5,4.3v16.7v1.1l3-3
			l3.3,3.2L33,36.6l-9.2-9.2l3.3-3.3l3,3v-1.1V8.5C30,6.4,29.7,0,41.3,0z"/>
	</g>
	<g>
		<g class="st11">
			<defs>
				<path id="SVGID_14_" class="st11" d="M35.9,9.7V9.2C35.9,7.9,36,5,41.3,5c5.6,0,5.9,2.9,5.9,4.9v0.5c-0.1-1.9-0.3-4.9-5.9-4.9
					C36,5.5,35.9,8.5,35.9,9.7z"/>
			</defs>
			<clipPath id="SVGID_15_">
				<use xlink:href="#SVGID_14_"  style="overflow:visible;"/>
			</clipPath>
			<g class="st22">
				<path class="st13" d="M47.3,9.8v0.5c-0.1-1.9-0.3-4.9-5.9-4.9c-3.1,0-4.5,1-5,2.1V7C36.9,6,38.2,5,41.3,5
					C47,5,47.2,7.9,47.3,9.8"/>
				<path class="st17" d="M36.3,7v0.5c-0.1,0.2-0.2,0.4-0.2,0.6V7.6C36.1,7.4,36.2,7.2,36.3,7"/>
				<path class="st16" d="M36.1,7.6v0.5C36,8.4,36,8.6,35.9,8.8V8.3C36,8.1,36,7.8,36.1,7.6"/>
				<path class="st15" d="M35.9,8.3v0.5c0,0.4-0.1,0.7-0.1,0.9V9.2C35.9,8.9,35.9,8.6,35.9,8.3"/>
			</g>
		</g>
		<g>
			<rect x="47.3" y="10.4" class="st1" width="7" height="0.5"/>
		</g>
		<g>
			<polygon class="st1" points="42.1,27.4 42.1,28 33,37.2 33,36.6 			"/>
		</g>
		<g>
			<polygon class="st1" points="33,36.6 33,37.2 23.8,28 23.8,27.4 			"/>
		</g>
	</g>
	<g>
		<g class="st11">
			<defs>
				<path id="SVGID_16_" class="st11" d="M35.9,9.4V8.8c0-1.3,0.1-4.2,5.5-4.2c5.6,0,5.9,2.9,5.9,4.9V10c-0.1-1.9-0.3-4.9-5.9-4.9
					C36,5.2,35.9,8.1,35.9,9.4z"/>
			</defs>
			<use xlink:href="#SVGID_16_"  style="overflow:visible;fill:#FFFFFF;"/>
			<clipPath id="SVGID_17_">
				<use xlink:href="#SVGID_16_"  style="overflow:visible;"/>
			</clipPath>
			<g class="st23">
				<path class="st6" d="M47.3,9.5V10c-0.1-1.9-0.3-4.9-5.9-4.9c-3.1,0-4.5,1-5,2.1V6.7c0.6-1.1,1.9-2.1,5-2.1
					C47,4.6,47.2,7.6,47.3,9.5"/>
				<path class="st6" d="M36.3,6.7v0.5c-0.1,0.2-0.2,0.4-0.2,0.6V7.3C36.1,7.1,36.2,6.9,36.3,6.7"/>
				<path class="st6" d="M36.1,7.3v0.5C36,8,36,8.3,35.9,8.5V7.9C36,7.7,36,7.5,36.1,7.3"/>
				<path class="st6" d="M35.9,7.9v0.5c0,0.4-0.1,0.7-0.1,0.9V8.8C35.9,8.6,35.9,8.3,35.9,7.9"/>
			</g>
		</g>
		<g>
			<rect x="47.3" y="10.1" class="st6" width="7" height="0.5"/>
		</g>
		<g>
			<polygon class="st6" points="42.1,27.1 42.1,27.6 33,36.8 33,36.3 			"/>
		</g>
		<g>
			<polygon class="st6" points="33,36.3 33,36.8 23.8,27.6 23.8,27.1 			"/>
		</g>
	</g>
	<g>
		<g>
			<polygon class="st6" points="47.9,21.6 47.9,22.1 44.9,25.1 44.9,24.6 			"/>
		</g>
		<g>
			<polygon class="st6" points="44.9,24.6 44.9,25.1 41.6,21.9 41.6,21.3 			"/>
		</g>
		<g>
			<polygon class="st6" points="56.7,24.6 56.7,25.1 53.7,22.1 53.7,21.6 			"/>
		</g>
		<g>
			<polygon class="st6" points="60,21.3 60,21.9 56.7,25.1 56.7,24.6 			"/>
		</g>
		<g class="st11">
			<defs>
				<path id="SVGID_18_" class="st11" d="M53.7,40.7v0.5c0,2.4-0.3,8.1-11.3,8.1c-12.5,0-12.9-6.2-12.9-9.3v-0.5
					c0,3.1,0.4,9.3,12.9,9.3C53.4,48.8,53.7,43.1,53.7,40.7z"/>
			</defs>
			<use xlink:href="#SVGID_18_"  style="overflow:visible;fill:#FFFFFF;"/>
			<clipPath id="SVGID_19_">
				<use xlink:href="#SVGID_18_"  style="overflow:visible;"/>
			</clipPath>
			<g class="st24">
				<path class="st6" d="M53.7,40.7v0.5c0,0.4,0,1-0.1,1.6v-0.5C53.7,41.6,53.7,41.1,53.7,40.7"/>
				<path class="st6" d="M53.7,42.2v0.5c-0.1,0.4-0.1,0.8-0.3,1.2v-0.5C53.5,43,53.6,42.6,53.7,42.2"/>
				<path class="st6" d="M53.4,43.4V44c-0.1,0.4-0.3,0.7-0.5,1.1v-0.5C53.1,44.2,53.3,43.8,53.4,43.4"/>
				<path class="st6" d="M52.9,44.6v0.5c-1.1,2.2-3.9,4.2-10.5,4.2c-12.5,0-12.9-6.2-12.9-9.3v-0.5c0,3.1,0.4,9.3,12.9,9.3
					C49,48.8,51.8,46.7,52.9,44.6"/>
			</g>
		</g>
	</g>
</g>
</svg>
