<?xml version="1.0" encoding="utf-8"?>
<!-- Generator: Adobe Illustrator 23.0.3, SVG Export Plug-In . SVG Version: 6.00 Build 0)  -->
<svg version="1.1" id="Layer_1" xmlns="http://www.w3.org/2000/svg" xmlns:xlink="http://www.w3.org/1999/xlink" x="0px" y="0px"
	 viewBox="0 0 113.4 49.7" style="enable-background:new 0 0 113.4 49.7;" xml:space="preserve">
<style type="text/css">
	.st0{fill:#0A74BB;}
	.st1{enable-background:new    ;}
	.st2{clip-path:url(#SVGID_2_);enable-background:new    ;}
	.st3{fill:#044977;}
	.st4{clip-path:url(#SVGID_4_);enable-background:new    ;}
	.st5{clip-path:url(#SVGID_6_);enable-background:new    ;}
	.st6{fill:#084F80;}
</style>
<g>
	<path class="st0" d="M18.7,23.1l11.1,24.7h-7.1l-2.1-5.1H9l-2.1,5.1H0l11.2-24.7C11.2,23.1,18.7,23.1,18.7,23.1z M10.8,38.5h8.1
		l-4-9.7L10.8,38.5"/>
</g>
<g class="st1">
	<g>
		<defs>
			<path id="SVGID_1_" d="M47.9,39.9v0.5v-0.1V39.9C47.9,39.8,47.9,39.9,47.9,39.9z"/>
		</defs>
		<clipPath id="SVGID_2_">
			<use xlink:href="#SVGID_1_"  style="overflow:visible;"/>
		</clipPath>
		<g class="st2">
			<path class="st3" d="M47.9,39.9v0.5v-0.1V39.9C47.9,39.8,47.9,39.9,47.9,39.9"/>
		</g>
	</g>
</g>
<g class="st1">
	<g>
		<defs>
			<path id="SVGID_3_" d="M30,8.6V8.1c0,0.1,0,0.3,0,0.4V9C30,8.9,30,8.8,30,8.6z"/>
		</defs>
		<clipPath id="SVGID_4_">
			<use xlink:href="#SVGID_3_"  style="overflow:visible;"/>
		</clipPath>
		<g class="st4">
			<path class="st3" d="M30,8.5V9c0-0.1,0-0.2,0-0.4V8.1C30,8.2,30,8.4,30,8.5"/>
		</g>
	</g>
</g>
<g class="st1">
	<g>
		<defs>
			<path id="SVGID_5_" d="M54.2,9.3c0,0.2,0,0.4,0,0.5v0.5c0-0.2,0-0.3,0-0.5C54.2,9.7,54.2,9.5,54.2,9.3z"/>
		</defs>
		<clipPath id="SVGID_6_">
			<use xlink:href="#SVGID_5_"  style="overflow:visible;"/>
		</clipPath>
		<g class="st5">
			<path class="st6" d="M54.2,9.3v0.5c0,0.2,0,0.4,0,0.5V9.8C54.2,9.7,54.2,9.5,54.2,9.3"/>
		</g>
	</g>
</g>
<g>
	<path class="st0" d="M72.8,23.1l11.1,24.7h-7.1l-2.1-5.1H63.1L61,47.8h-6.9l11.2-24.7C65.3,23.1,72.8,23.1,72.8,23.1z M64.9,38.5
		H73l-4-9.7L64.9,38.5"/>
</g>
<g>
	<polygon class="st0" points="103.2,35 113.4,47.8 105.4,47.8 99.4,39.4 93.1,47.8 85.5,47.8 95.6,35.2 85.9,23.1 93.8,23.1 
		99.4,31.1 105.2,23.1 112.8,23.1 	"/>
</g>
<g>
	<path class="st0" d="M50.8,12.5l9.2,9.2L56.7,25l-3-3v1.1v17.6c0,2.1,0.3,8.5-11.3,8.5c-13.3,0-12.9-6.9-12.9-9.8v-0.6h7v0.6
		c0.1,1.9,0.3,4.9,5.9,4.9c5.5,0,5.5-3.1,5.5-4.3V23.1V22l-3,3l-3.3-3.2L50.8,12.5z"/>
</g>
<g>
	<path class="st0" d="M41.3,0c13.3,0,12.9,6.9,12.9,9.8v0.6h-7V9.8C47.2,7.9,47,5,41.3,5c-5.5,0-5.5,3.1-5.5,4.3V26v1.1l3-3l3.3,3.2
		L33,36.6l-9.2-9.2l3.3-3.3l3,3V26V8.5C30,6.4,29.7,0,41.3,0z"/>
</g>
</svg>
