<?xml version="1.0" encoding="utf-8"?>
<!-- Generator: Adobe Illustrator 23.0.3, SVG Export Plug-In . SVG Version: 6.00 Build 0)  -->
<svg version="1.1" id="Layer_1" xmlns="http://www.w3.org/2000/svg" xmlns:xlink="http://www.w3.org/1999/xlink" x="0px" y="0px"
	 viewBox="0 0 401.6 401.6" style="enable-background:new 0 0 401.6 401.6;" xml:space="preserve">
<style type="text/css">
	.st0{fill:#3765AF;}
	.st1{fill:#FFFFFF;}
</style>
<path class="st0" d="M401.5,200.8c-9.2,58.5-27.1,75.6-58.8,114.9c-31.7,33.3-77.3,88.9-141.9,85.8c-58.5-9.2-75.6-27.1-114.9-58.8
	C52.6,311-3,265.4,0.1,200.8c9.2-58.5,27.1-75.6,58.8-114.9C90.6,52.6,136.2-3,200.8,0.1c58.5,9.2,75.6,27.1,114.9,58.8
	C349,90.7,404.5,136.2,401.5,200.8z"/>
<g>
	<path class="st1" d="M279.6,118.3c6.8,9.4,10.1,20.7,10.1,33.8c0,13.5-3.4,24.4-10.2,32.6c-3.8,4.6-9.4,8.8-16.9,12.6
		c11.3,4.1,19.8,10.6,25.6,19.5c5.7,8.9,8.6,19.7,8.6,32.4c0,13.1-3.3,24.9-9.8,35.3c-4.2,6.9-9.4,12.7-15.7,17.4
		c-7.1,5.4-15.4,9.1-25,11.1s-20,3-31.3,3h-99.7V94.8h106.9C249.2,95.2,268.3,103,279.6,118.3z M159.4,133.2V182h53.8
		c9.6,0,17.4-1.8,23.4-5.5s9-10.1,9-19.4c0-10.3-4-17.1-11.9-20.4c-6.8-2.3-15.6-3.5-26.1-3.5L159.4,133.2L159.4,133.2z
		 M159.4,218.6v59h53.7c9.6,0,17.1-1.3,22.4-3.9c9.7-4.8,14.5-14,14.5-27.6c0-11.5-4.7-19.4-14.1-23.7c-5.2-2.4-12.6-3.7-22.1-3.8
		H159.4z"/>
</g>
</svg>
