<?xml version="1.0" encoding="utf-8"?>
<!-- Generator: Adobe Illustrator 23.0.3, SVG Export Plug-In . SVG Version: 6.00 Build 0)  -->
<svg version="1.1" id="Layer_1" xmlns="http://www.w3.org/2000/svg" xmlns:xlink="http://www.w3.org/1999/xlink" x="0px" y="0px"
	 viewBox="0 0 549.5 217.3" style="enable-background:new 0 0 549.5 217.3;" xml:space="preserve">
<style type="text/css">
	.st0{fill:#0071BC;}
	.st1{fill:none;stroke:#0071BC;stroke-miterlimit:10;}
	.st2{fill:#FFFFFF;}
	.st3{fill:#FFFFFF;stroke:#0071BC;stroke-miterlimit:10;}
	.st4{opacity:0.3;fill:#93CEA8;stroke:#93CEA8;stroke-miterlimit:10;enable-background:new    ;}
	.st5{opacity:0.3;fill:#CE9178;enable-background:new    ;}
	.st6{opacity:0.3;fill:#D7BA7D;enable-background:new    ;}
	.st7{fill:#0071BC;stroke:#858585;stroke-miterlimit:10;}
	.st8{opacity:0.7;fill:#0071BC;stroke:#93CEA8;stroke-miterlimit:10;enable-background:new    ;}
	.st9{fill:#BDBDBD;stroke:#CD9178;stroke-miterlimit:10;}
	.st10{opacity:0.5;fill:#0071BC;stroke:#BDBDBD;stroke-miterlimit:10;enable-background:new    ;}
	.st11{fill:#0071BC;stroke:#0071BC;stroke-miterlimit:10;}
	.st12{opacity:0.5;fill:#0071BC;stroke:#0071BC;stroke-miterlimit:10;}
	.st13{fill:#0071BC;stroke:#C3602C;stroke-miterlimit:10;}
	.st14{opacity:0.5;fill:#0071BC;stroke:#0071BC;stroke-miterlimit:10;enable-background:new    ;}
	.st15{display:none;fill:none;}
	.st16{opacity:0.3;fill:#FFFFFF;stroke:#C3602C;stroke-miterlimit:10;enable-background:new    ;}
	.st17{opacity:0.2;fill:#0071BC;stroke:#0071BC;stroke-miterlimit:10;enable-background:new    ;}
	.st18{opacity:0.2;}
	.st19{opacity:0.35;fill:#93CEA8;enable-background:new    ;}
	.st20{opacity:0.55;fill:#0071BC;}
</style>
<g>
	<path class="st0" d="M321.6,45.3c2.1,0,3.9,1.7,3.9,3.9v116.2c0,2.1-1.7,3.9-3.9,3.9H105.4c-2.1,0-3.9-1.7-3.9-3.9V49.1
		c0-2.1,1.7-3.9,3.9-3.9h216.2 M321.6,44.3H105.4c-2.7,0-4.9,2.2-4.9,4.9v116.2c0,2.7,2.2,4.9,4.9,4.9h216.2c2.7,0,4.9-2.2,4.9-4.9
		V49.1C326.5,46.4,324.3,44.3,321.6,44.3L321.6,44.3z"/>
</g>
<g>
	<path class="st0" d="M330.6,34.3c2.7,0,4.9,2.2,4.9,4.9v135.3c0,2.7-2.2,4.9-4.9,4.9H95.4c-2.7,0-4.9-2.2-4.9-4.9V39.1
		c0-2.7,2.2-4.9,4.9-4.9h235.2 M330.6,33.3H95.4c-3.2,0-5.9,2.6-5.9,5.9v135.3c0,3.2,2.6,5.9,5.9,5.9h235.3c3.2,0,5.9-2.6,5.9-5.9
		V39.1C336.5,35.9,333.9,33.3,330.6,33.3L330.6,33.3z"/>
</g>
<g>
	<path class="st0" d="M254.4,209.3c1.7,0,3.1,1.4,3.1,3.1v0.8c0,1.7-1.4,3.1-3.1,3.1h-84.8c-1.7,0-3.1-1.4-3.1-3.1v-0.8
		c0-1.7,1.4-3.1,3.1-3.1H254.4 M254.4,208.3h-84.8c-2.3,0-4.1,1.8-4.1,4.1v0.8c0,2.3,1.8,4.1,4.1,4.1h84.8c2.3,0,4.1-1.8,4.1-4.1
		v-0.8C258.5,210.1,256.7,208.3,254.4,208.3L254.4,208.3z"/>
</g>
<g>
	<line class="st1" x1="195" y1="179.8" x2="191" y2="208.8"/>
</g>
<g>
	<line class="st1" x1="229" y1="179.8" x2="233" y2="208.8"/>
</g>
<g>
	<path class="st2" d="M285.4,206.8c-2.4,0-4.4-2-4.4-4.4v-97.2c0-2.4,2-4.4,4.4-4.4h152.2c2.4,0,4.4,2,4.4,4.4v97.2
		c0,2.4-2,4.4-4.4,4.4H285.4z"/>
	<path class="st0" d="M437.6,101.3c2.1,0,3.9,1.7,3.9,3.9v97.2c0,2.1-1.7,3.9-3.9,3.9H285.4c-2.1,0-3.9-1.7-3.9-3.9v-97.2
		c0-2.1,1.7-3.9,3.9-3.9L437.6,101.3 M437.6,100.3H285.4c-2.7,0-4.9,2.2-4.9,4.9v97.2c0,2.7,2.2,4.9,4.9,4.9h152.2
		c2.7,0,4.9-2.2,4.9-4.9v-97.2C442.5,102.4,440.3,100.3,437.6,100.3L437.6,100.3z"/>
</g>
<g>
	<path class="st0" d="M451.2,207.3c0.1,0,0.3,0.1,0.3,0.3v3.3c0,3-2.4,5.4-5.4,5.4H277.9c-3,0-5.4-2.4-5.4-5.4v-3.6H451.2
		 M451.2,206.3H271.9c-0.2,0-0.4,0.2-0.4,0.4v4.1c0,3.6,2.9,6.4,6.4,6.4H446c3.6,0,6.4-2.9,6.4-6.4v-3.3
		C452.5,206.8,451.9,206.3,451.2,206.3L451.2,206.3z"/>
</g>
<g>
	<path class="st2" d="M291.4,200.8c-2.4,0-4.4-2-4.4-4.4v-84.2c0-2.4,2-4.4,4.4-4.4h140.2c2.4,0,4.4,2,4.4,4.4v84.2
		c0,2.4-2,4.4-4.4,4.4H291.4z"/>
	<path class="st0" d="M431.6,108.3c2.1,0,3.9,1.7,3.9,3.9v84.2c0,2.1-1.7,3.9-3.9,3.9H291.4c-2.1,0-3.9-1.7-3.9-3.9v-84.2
		c0-2.1,1.7-3.9,3.9-3.9L431.6,108.3 M431.6,107.3H291.4c-2.7,0-4.9,2.2-4.9,4.9v84.2c0,2.7,2.2,4.9,4.9,4.9h140.2
		c2.7,0,4.9-2.2,4.9-4.9v-84.2C436.5,109.4,434.3,107.3,431.6,107.3L431.6,107.3z"/>
</g>
<g>
	<path class="st2" d="M352,212.3c-3.1,0-5.7-2.4-6-5.5h31c-0.3,3.1-2.8,5.5-6,5.5H352z"/>
	<path class="st0" d="M376.4,207.3c-0.5,2.6-2.7,4.5-5.4,4.5h-19c-2.7,0-4.9-1.9-5.4-4.5H376.4 M377.5,206.3h-32
		c0,3.6,2.9,6.5,6.5,6.5h19C374.6,212.8,377.5,209.8,377.5,206.3L377.5,206.3z"/>
</g>
<path class="st3" d="M467.8,160.8H354.7c-1.8,0-3.2-1.4-3.2-3.2V70.4c0-1.8,1.4-3.2,3.2-3.2h113.1c1.8,0,3.2,1.4,3.2,3.2v87.1
	C471,159.3,469.6,160.8,467.8,160.8z"/>
<rect x="361.5" y="87.8" class="st4" width="99" height="13"/>
<rect x="361.5" y="107.8" class="st5" width="27" height="27"/>
<rect x="361.5" y="142.3" class="st6" width="99" height="10"/>
<rect x="397.5" y="107.8" class="st5" width="27" height="27"/>
<rect x="433.5" y="107.8" class="st5" width="27" height="27"/>
<path class="st3" d="M245.8,119.8H121.2c-1.8,0-3.2-1.4-3.2-3.2V3.7c0-1.8,1.4-3.2,3.2-3.2h124.6c1.8,0,3.2,1.4,3.2,3.2v112.9
	C249,118.3,247.6,119.8,245.8,119.8z"/>
<rect x="130.5" y="28.8" class="st7" width="1" height="1"/>
<rect x="130.5" y="35.8" class="st7" width="1" height="1"/>
<rect x="130.5" y="42.8" class="st7" width="1" height="1"/>
<rect x="130.5" y="63.8" class="st7" width="1" height="1"/>
<rect x="130.5" y="56.8" class="st7" width="1" height="1"/>
<rect x="130.5" y="70.8" class="st7" width="1" height="1"/>
<rect x="130.6" y="49.8" class="st8" width="28" height="1"/>
<rect x="130.5" y="21.8" class="st8" width="28" height="1"/>
<rect x="137.5" y="28.8" class="st9" width="16" height="1"/>
<rect x="137.4" y="35.7" class="st9" width="18.9" height="1.1"/>
<rect x="137.4" y="42.7" class="st9" width="17.6" height="1.1"/>
<rect x="137.4" y="56.7" class="st9" width="17.6" height="1.1"/>
<rect x="137.4" y="63.7" class="st9" width="12.2" height="1.1"/>
<rect x="137.4" y="70.7" class="st9" width="14.9" height="1.1"/>
<rect x="172.5" y="21.8" class="st10" width="1" height="1"/>
<rect x="172.5" y="28.8" class="st10" width="1" height="1"/>
<rect x="172.5" y="35.8" class="st10" width="1" height="1"/>
<rect x="172.5" y="42.8" class="st10" width="1" height="1"/>
<rect x="172.5" y="49.8" class="st10" width="1" height="1"/>
<rect x="172.5" y="56.8" class="st10" width="1" height="1"/>
<rect x="172.5" y="63.8" class="st10" width="1" height="1"/>
<rect x="172.5" y="70.8" class="st10" width="1" height="1"/>
<rect x="172.5" y="77.8" class="st10" width="1" height="1"/>
<rect x="172.5" y="84.8" class="st10" width="1" height="1"/>
<rect x="172.5" y="91.8" class="st10" width="1" height="1"/>
<rect x="172.5" y="98.8" class="st10" width="1" height="1"/>
<rect x="172.5" y="105.8" class="st10" width="1" height="1"/>
<rect x="178.5" y="21.8" class="st11" width="16.2" height="1"/>
<rect x="184.5" y="28.8" class="st12" width="16.2" height="1"/>
<rect x="178.5" y="35.8" class="st11" width="16.2" height="1"/>
<rect x="200.3" y="21.8" class="st13" width="8.1" height="1"/>
<rect x="200.3" y="35.8" class="st13" width="6.8" height="1"/>
<rect x="207.1" y="28.8" class="st11" width="16.2" height="1"/>
<rect x="178.5" y="49.8" class="st12" width="20.3" height="1"/>
<rect x="184.5" y="56.8" class="st11" width="16.2" height="1"/>
<rect x="184.5" y="63.8" class="st11" width="13.5" height="1"/>
<rect x="203" y="49.8" class="st11" width="10.8" height="1"/>
<rect x="204.4" y="63.8" class="st12" width="12.2" height="1"/>
<rect x="207.1" y="56.8" class="st13" width="18.9" height="1"/>
<rect x="184.5" y="70.8" class="st13" width="16.2" height="1"/>
<rect x="205.7" y="70.8" class="st11" width="16.2" height="1"/>
<rect x="190.5" y="77.8" class="st11" width="16.2" height="1"/>
<rect x="211.1" y="77.8" class="st13" width="16.2" height="1"/>
<rect x="229.8" y="70.8" class="st11" width="6.8" height="1"/>
<rect x="196.5" y="84.8" class="st12" width="13.5" height="1"/>
<rect x="190.5" y="91.8" class="st13" width="16.2" height="1"/>
<rect x="184.5" y="98.8" class="st11" width="16.2" height="1"/>
<rect x="178.5" y="105.8" class="st13" width="10.8" height="1"/>
<rect x="178.5" y="42.8" class="st13" width="13.5" height="1"/>
<path class="st1" d="M118,11.7l131-0.3L118,11.7z"/>
<circle class="st14" cx="127.5" cy="6.3" r="1.5"/>
<circle class="st14" cx="134" cy="6.3" r="1.5"/>
<circle class="st14" cx="140.5" cy="6.3" r="1.5"/>
<circle class="st14" cx="357.5" cy="72.8" r="1.5"/>
<circle class="st14" cx="364" cy="72.8" r="1.5"/>
<circle class="st14" cx="370.5" cy="72.8" r="1.5"/>
<rect x="34.5" y="142.3" class="st15" width="44" height="75"/>
<path class="st3" d="M104.5,216.8h-35c-4.1,0-7.5-3.4-7.5-7.5v-74c0-4.1,3.4-7.5,7.5-7.5h35c4.1,0,7.5,3.4,7.5,7.5v74
	C112,213.4,108.6,216.8,104.5,216.8z"/>
<line class="st1" x1="62" y1="138.3" x2="112" y2="138.3"/>
<line class="st1" x1="62" y1="204.8" x2="112" y2="204.8"/>
<line class="st1" x1="77.5" y1="133.3" x2="95.5" y2="133.3"/>
<circle class="st14" cx="86.5" cy="210.8" r="1.5"/>
<rect x="70" y="147.8" class="st16" width="14" height="14"/>
<rect x="90" y="147.8" class="st17" width="14" height="1"/>
<rect x="90" y="154.3" class="st17" width="14" height="1"/>
<rect x="90" y="160.8" class="st17" width="14" height="1"/>
<rect x="70" y="177.8" class="st6" width="34" height="11"/>
<path class="st3" d="M490.9,216.8H465v-0.1c0-6.4,5.2-11.6,11.6-11.6h2.7C485.8,205,491,210.2,490.9,216.8L490.9,216.8
	C491,216.7,491,216.8,490.9,216.8z"/>
<line class="st1" x1="478" y1="204.8" x2="478" y2="206.8"/>
<g>
	<circle class="st1" cx="538" cy="195.8" r="11"/>
	<circle class="st1" cx="538" cy="195.8" r="6.5"/>
</g>
<path class="st3" d="M534,216.8h-27c-2.2,0-4-1.8-4-4V181c0-0.6,0.5-1.2,1.2-1.2h32.7c0.6,0,1.1,0.5,1.1,1.1v31.8
	C538,215,536.2,216.8,534,216.8z"/>
<g class="st18">
	<path class="st0" d="M511.6,196.4l-0.1,0.8h-0.8l-0.3,1.6h-0.9l0.3-1.6h-0.6l-0.3,1.6H508l0.3-1.6h-0.9l0.2-0.8h0.9l0.1-0.6h-0.9
		l0.2-0.8h0.9l0.3-1.5h0.9l-0.3,1.5h0.6l0.3-1.5h0.9l-0.3,1.5h0.8l-0.1,0.8h-0.8l-0.1,0.6H511.6z M510,195.8h-0.6l-0.1,0.6h0.6
		L510,195.8z"/>
	<path class="st0" d="M515.3,197.7h1.3v1.2h-4.1v-1.2h1.3v-2.5c-0.5,0.2-0.9,0.4-1.2,0.4v-1.2c0.8-0.2,1.3-0.5,1.5-0.9h1.2V197.7z"
		/>
	<path class="st0" d="M517.1,198.9v-5.3h2.1c0.9,0,1.6,0.3,2,0.8s0.7,1.1,0.7,1.8c0,0.8-0.2,1.4-0.7,1.9s-1.1,0.7-1.9,0.7h-2.2
		V198.9z M518.7,197.6h0.4c0.3,0,0.5-0.1,0.7-0.4s0.3-0.6,0.3-1.1c0-0.4-0.1-0.7-0.2-1s-0.4-0.4-0.7-0.4h-0.4L518.7,197.6
		L518.7,197.6z"/>
	<path class="st0" d="M525.3,198.9l-0.3-1.1h-1.4l-0.3,1.1H522l1.6-5.3h1.7l1.7,5.3H525.3z M523.8,196.6h0.9l-0.4-1.5L523.8,196.6z"
		/>
	<path class="st0" d="M527.5,198.9v-5.3h2.1c0.9,0,1.6,0.3,2,0.8s0.7,1.1,0.7,1.8c0,0.8-0.2,1.4-0.7,1.9s-1.1,0.7-1.9,0.7h-2.2
		V198.9z M529.1,197.6h0.4c0.3,0,0.5-0.1,0.7-0.4s0.3-0.6,0.3-1.1c0-0.4-0.1-0.7-0.2-1s-0.4-0.4-0.7-0.4h-0.4L529.1,197.6
		L529.1,197.6z"/>
</g>
<line class="st1" x1="4.4" y1="190" x2="7.8" y2="216.8"/>
<line class="st1" x1="40.6" y1="190" x2="37.2" y2="216.8"/>
<line class="st1" x1="7.3" y1="216.8" x2="37.7" y2="216.8"/>
<rect x="0.5" y="185.7" class="st1" width="44" height="4.3"/>
<path class="st19" d="M20.9,172.2v12.9h3.4v-12.9c7.1-0.3,13.4-4.2,14.5-11.3c0.3-1.9,0.7-5.6-1.3-7c-3.8-2.6-10.5,2.2-13.3,4.3
	c-2.4-6.6-7.3-11.8-14.7-13.4c-2-0.4-5.8-1.3-7.4,0.3c-1.8,1.8-1.7,5.9-1.6,8.3C0.8,164.5,10.1,171,20.9,172.2z"/>
<g class="st18">
	<g>
		<path class="st0" d="M517.2,161.8c-1.7,1.2-3.2,3.6-2.8,5.7c0.2,0.9,0.9,1.4,1.4,2.2c1.5,2.5-0.9,4.1-2.6,5.4
			c-0.5,0.4,0.2,1.1,0.7,0.7c1.8-1.4,3.6-2.6,3.3-5.1c-0.1-0.7-0.3-1.4-0.7-1.9c-0.6-0.8-0.7-0.5-0.9-1.8c-0.2-1.8,0.5-3.3,2-4.3
			C518.3,162.3,517.8,161.4,517.2,161.8L517.2,161.8z"/>
	</g>
</g>
<g class="st18">
	<g>
		<path class="st0" d="M528.2,162.8c-1.6,1-2.9,2.9-2.8,4.9c0,0.8,0.2,1,0.6,1.6c0.9,1.4,2.2,2,0.5,4.1c-0.5,0.7-1.5,1.2-2.2,1.7
			c-0.5,0.4,0,1.3,0.5,0.9c1.6-1.2,3.6-2.3,3.4-4.5c0-0.8-0.3-1.5-0.8-2.1c-0.6-0.7-0.7-0.5-0.9-1.7c-0.2-1.7,0.6-3.1,2-4
			C529.3,163.3,528.8,162.5,528.2,162.8L528.2,162.8z"/>
	</g>
</g>
<path class="st20" d="M73,172.8l-0.3-1h-1.4l-0.3,1h-1.3l1.6-5H73l1.6,5H73z M71.5,170.7h0.8l-0.4-1.5L71.5,170.7z"/>
<path class="st20" d="M76.7,171v1.8h-1.6v-5h2.2c0.6,0,1,0.1,1.3,0.2s0.5,0.3,0.7,0.6s0.3,0.5,0.3,0.8c0,0.5-0.2,0.9-0.5,1.2
	s-0.8,0.4-1.4,0.4H76.7z M76.7,169.9h0.5c0.5,0,0.7-0.2,0.7-0.5s-0.2-0.5-0.7-0.5h-0.6L76.7,169.9L76.7,169.9z"/>
<path class="st20" d="M82.7,172.8l-0.3-1H81l-0.3,1h-1.3l1.6-5h1.7l1.6,5H82.7z M81.3,170.7h0.8l-0.4-1.5L81.3,170.7z"/>
<path class="st20" d="M88.8,171.6v1.2h-4.4v-1l2.3-2.9h-2.1v-1.2h4.1v1l-2.3,2.8L88.8,171.6L88.8,171.6z"/>
<path class="st20" d="M91,167.8v5h-1.6v-5H91z"/>
<path class="st20" d="M91.9,172.8v-5h2c0.9,0,1.5,0.2,2,0.7c0.4,0.5,0.7,1.1,0.7,1.7c0,0.7-0.2,1.4-0.7,1.8s-1.1,0.7-1.8,0.7h-2.2
	V172.8z M93.6,171.7H94c0.3,0,0.5-0.1,0.7-0.4c0.2-0.2,0.3-0.6,0.3-1s-0.1-0.7-0.2-0.9c-0.2-0.3-0.4-0.4-0.7-0.4h-0.4v2.7H93.6z"/>
<path class="st20" d="M98.9,167.8v5h-1.6v-5H98.9z"/>
<path class="st20" d="M99.3,171.4l1.5-0.3c0.1,0.4,0.4,0.6,1,0.6c0.4,0,0.6-0.1,0.6-0.3c0-0.1,0-0.2-0.1-0.3s-0.3-0.1-0.5-0.2
	c-0.9-0.2-1.5-0.4-1.8-0.7s-0.4-0.6-0.4-1c0-0.5,0.2-0.9,0.6-1.2s0.9-0.5,1.6-0.5c1.1,0,1.8,0.4,2.1,1.2l-1.3,0.4
	c-0.1-0.3-0.4-0.5-0.8-0.5s-0.5,0.1-0.5,0.3c0,0.1,0,0.2,0.1,0.2c0.1,0.1,0.2,0.1,0.5,0.1c0.1,0,1.1,0.2,1.3,0.3
	c0.3,0.1,0.5,0.3,0.7,0.5s0.3,0.5,0.3,0.8c0,0.5-0.2,0.9-0.6,1.2c-0.6,0.5-0.6,0.5-1.5,0.7C100.6,172.9,99.6,172.4,99.3,171.4z"/>
<path class="st1" d="M351.5,78.3h119H351.5z"/>
</svg>
