<?xml version="1.0" encoding="utf-8"?>
<!-- Generator: Adobe Illustrator 23.0.3, SVG Export Plug-In . SVG Version: 6.00 Build 0)  -->
<svg version="1.1" id="Layer_1" xmlns="http://www.w3.org/2000/svg" xmlns:xlink="http://www.w3.org/1999/xlink" x="0px" y="0px"
	 viewBox="0 0 80 80" style="enable-background:new 0 0 80 80;" xml:space="preserve">
<style type="text/css">
	.st0{fill:#CC6699;}
	.st1{fill:#FFFFFF;}
</style>
<g>
	<g>
		<g>
			<g>
				<circle class="st0" cx="40" cy="40" r="40"/>
			</g>
		</g>
	</g>
</g>
<path class="st1" d="M61.5,22.2c-0.5-1.9-1.8-3.5-3.9-4.6C53.5,15.4,47,15.4,41,17.5c-3.6,1.3-10.4,4.2-15.5,8.9
	c-5.1,4.8-5.9,9-5.5,10.7c0.9,4.6,5.8,7.9,9.6,10.6c1,0.7,2,1.4,2.7,2c-2.2,1.1-8,4.4-9.6,7.8c-1.2,2.7-0.6,4.7-0.2,5.6
	c0.5,1,1.3,1.8,2.1,2.1c0.8,0.2,1.7,0.3,2.6,0.3c3.4,0,6.8-1.8,8.9-5c2.1-3.1,2.2-7.3,1.3-9.8c1.4-0.3,2.8-0.3,4.4-0.2
	c3.1,0.4,4.6,1.6,5.4,2.6c0.8,1,1,2.1,0.9,2.7c-0.2,1.2-1.1,1.9-1.6,2.2c-0.4,0.2-0.7,0.5-0.6,1c0.2,0.6,0.8,0.6,1,0.6
	c0.7-0.2,3.3-1.4,3.4-4.3c0.1-1.8-0.6-3.5-2-5c-1.8-1.8-4.4-2.8-7.4-2.7c-2.2,0-3.8,0.2-5,0.6l-0.1-0.1c-1.1-1.2-2.6-2.3-4-3.4
	c-3.2-2.4-6.2-4.7-6-8.2c0.2-4.3,4.5-8.6,12.7-12.6c7.3-3.6,13.2-3.8,16.3-2.6c1.3,0.5,2.2,1.1,2.5,1.8c0.6,1.4,0.4,3.1-0.7,5
	c-1.8,3.2-6.5,7.2-13.6,8c-4.3,0.5-6.2-1.4-6.2-1.5c-0.5-0.6-0.8-0.9-1.4-0.6c-0.6,0.3-0.3,1.2-0.2,1.5c0.3,0.9,1.7,2.4,4,3.2
	c1.8,0.6,6.6,1,12.4-1.2C58.2,35,62.9,27.8,61.5,22.2z M33.9,56.3c-0.1,0.2-0.1,0.3-0.2,0.5c-0.1,0.2-0.2,0.3-0.2,0.5
	c-0.3,0.7-0.8,1.4-1.4,2.1c-1.8,2-4.3,2.6-5.1,2.1c-0.2-0.2-0.3-0.4-0.4-0.7c-0.2-1,0.4-2.9,2.1-4.6c2-2.1,4.8-3.6,5.4-3.9
	C34.4,53.7,34.3,55,33.9,56.3z"/>
</svg>
